<svg width="240" height="50" viewBox="0 0 240 50" fill="none" xmlns="http://www.w3.org/2000/svg">
  <!-- Terminal Icon -->
  <rect x="5" y="10" width="30" height="30" rx="4" stroke="#00ff00" stroke-width="2" fill="none"/>
  <path d="M10 18 L15 23 L10 28" stroke="#00ff00" stroke-width="2" stroke-linecap="round" stroke-linejoin="round"/>
  <line x1="18" y1="28" x2="25" y2="28" stroke="#00ff00" stroke-width="2" stroke-linecap="round"/>
  
  <!-- Text: AetherTerm (moved right to avoid overlap) -->
  <text x="45" y="30" font-family="'Courier New', monospace" font-size="22" font-weight="bold" fill="#ffffff">
    <tspan fill="#00ff00">Aether</tspan><tspan fill="#4caf50">Term</tspan>
  </text>
  
  <!-- AI Brain Icon (moved further right) -->
  <g transform="translate(210, 15)">
    <circle cx="12" cy="12" r="10" stroke="#4caf50" stroke-width="1.5" fill="none"/>
    <path d="M12 2 Q8 6 8 12 T12 22 Q16 18 16 12 T12 2" fill="#4caf50" opacity="0.3"/>
    <circle cx="12" cy="8" r="2" fill="#4caf50"/>
    <circle cx="8" cy="12" r="2" fill="#4caf50"/>
    <circle cx="16" cy="12" r="2" fill="#4caf50"/>
    <circle cx="12" cy="16" r="2" fill="#4caf50"/>
    <line x1="12" y1="8" x2="8" y2="12" stroke="#4caf50" stroke-width="1"/>
    <line x1="12" y1="8" x2="16" y2="12" stroke="#4caf50" stroke-width="1"/>
    <line x1="8" y1="12" x2="12" y2="16" stroke="#4caf50" stroke-width="1"/>
    <line x1="16" y1="12" x2="12" y2="16" stroke="#4caf50" stroke-width="1"/>
  </g>
  
  <!-- Decorative line -->
  <line x1="5" y1="45" x2="235" y2="45" stroke="#00ff00" stroke-width="1" opacity="0.5"/>
</svg>
